<svg width="33" height="34" viewBox="0 0 33 34" fill="none" xmlns="http://www.w3.org/2000/svg">
<path d="M16.5 0.5C7.38727 0.5 0 7.8873 0 17C0 26.1127 7.38727 33.5 16.5 33.5C24.6758 33.5 31.4626 27.5537 32.7719 19.75H32.6534C31.4323 24.4944 27.1255 28 22 28C15.9249 28 11 23.0751 11 17C11 10.9249 15.9249 6 22 6C27.1255 6 31.4323 9.50562 32.6534 14.25H32.7719C31.4626 6.44629 24.6758 0.5 16.5 0.5Z" fill="#95BAFB"/>
<path d="M0 17C0 7.8873 7.3873 0.5 16.5 0.5C24.6757 0.5 31.4626 6.44629 32.7719 14.25H21.6534C20.4323 9.50562 16.1256 6 11 6C4.92487 6 0 10.9249 0 17Z" fill="#203CD5"/>
<path d="M0 17C0 26.1127 7.3873 33.5 16.5 33.5C24.6757 33.5 31.4626 27.5537 32.7719 19.75H21.6534C20.4323 24.4944 16.1256 28 11 28C4.92487 28 0 23.0751 0 17Z" fill="#203CD5"/>
</svg>
