<svg width="30" height="34" viewBox="0 0 30 34" fill="none" xmlns="http://www.w3.org/2000/svg">
<path d="M25.3231 16.9999C22.6665 19.9784 18.8058 21.8529 14.5087 21.8529C10.2117 21.8529 6.35099 19.9784 3.69434 16.9999C6.351 14.0214 10.2117 12.147 14.5087 12.147C18.8058 12.147 22.6665 14.0214 25.3231 16.9999Z" fill="white"/>
<path fill-rule="evenodd" clip-rule="evenodd" d="M0 26.7058C0 18.6652 6.4958 12.147 14.5088 12.147C10.2118 12.147 6.35108 14.0214 3.69442 16.9999C6.35108 19.9784 10.2118 21.8529 14.5088 21.8529C18.8058 21.8529 22.6665 19.9784 25.3232 16.9999C27.6206 19.5757 29.0176 22.977 29.0176 26.7058V32.2058C29.0176 32.9205 28.4402 33.4999 27.7279 33.4999H1.28967C0.577405 33.4999 0 32.9205 0 32.2058V26.7058ZM25.3232 16.9999C25.3232 16.9999 25.3232 16.9999 25.3232 16.9999V16.9999Z" fill="#95BAFB"/>
<path fill-rule="evenodd" clip-rule="evenodd" d="M9.06671 20.7941C6.99505 19.9524 5.16121 18.6445 3.69442 17C6.35108 14.0215 10.2118 12.1471 14.5088 12.1471C18.8058 12.1471 22.6665 14.0215 25.3232 17C25.3232 17 25.3232 17 25.3232 17C27.6206 14.4243 29.0176 11.0229 29.0176 7.29412V1.79412C29.0176 1.0794 28.4402 0.500002 27.7279 0.500002L1.28967 0.5C0.577406 0.5 5.41441e-07 1.0794 4.79173e-07 1.79412L0 7.29412C-9.63758e-07 13.4036 3.75023 18.6341 9.06671 20.7941Z" fill="#3E6FF3"/>
</svg>
