<svg width="24" height="25" viewBox="0 0 24 25" fill="none" xmlns="http://www.w3.org/2000/svg">
<path d="M17.5 7H17.51M7 2.5H17C19.7614 2.5 22 4.73858 22 7.5V17.5C22 20.2614 19.7614 22.5 17 22.5H7C4.23858 22.5 2 20.2614 2 17.5V7.5C2 4.73858 4.23858 2.5 7 2.5ZM16 11.87C16.1234 12.7022 15.9813 13.5522 15.5938 14.299C15.2063 15.0458 14.5931 15.6514 13.8416 16.0297C13.0901 16.4079 12.2384 16.5396 11.4078 16.4059C10.5771 16.2723 9.80976 15.8801 9.21484 15.2852C8.61992 14.6902 8.22773 13.9229 8.09407 13.0922C7.9604 12.2616 8.09207 11.4099 8.47033 10.6584C8.84859 9.90685 9.45419 9.29374 10.201 8.90624C10.9478 8.51874 11.7978 8.37659 12.63 8.5C13.4789 8.62588 14.2649 9.02146 14.8717 9.62831C15.4785 10.2351 15.8741 11.0211 16 11.87Z" stroke="#A7B0B9" stroke-width="1.5" stroke-linecap="round" stroke-linejoin="round"/>
</svg>
