<svg width="33" height="34" viewBox="0 0 33 34" fill="none" xmlns="http://www.w3.org/2000/svg">
<path d="M9.91288 15.7385C10.5268 13.4373 12.8814 11.0718 15.1721 10.4551L29.4533 6.61037C31.744 5.99367 33.1033 7.35923 32.4894 9.66044L28.6622 24.0072C28.0483 26.3084 25.6937 28.6738 23.403 29.2905L9.1218 33.1353C6.8311 33.752 5.47178 32.3864 6.08566 30.0852L9.91288 15.7385Z" fill="#468194"/>
<path d="M4.1873 9.98701C4.80118 7.6858 7.1558 5.32038 9.4465 4.70368L23.7277 0.858905C26.0184 0.242206 27.3778 1.60777 26.7639 3.90897L22.9367 18.2557C22.3228 20.5569 19.9681 22.9223 17.6775 23.539L3.39622 27.3838C1.10552 28.0005 -0.253805 26.6349 0.360077 24.3337L4.1873 9.98701Z" fill="#375967"/>
</svg>
