<svg width="272" height="318" viewBox="0 0 272 318" fill="none" xmlns="http://www.w3.org/2000/svg">
<g clip-path="url(#clip0_790_304)">
<path d="M36.3698 244.014C28.0305 254.967 21.5346 267.522 17.0532 279.544C15.8942 282.642 14.5531 285.563 13.1899 288.583C9.7166 296.371 6.24333 304.159 2.77003 311.947L0.893555 316.131C2.77554 316.581 3.73033 317.004 4.69064 317.01C22.1142 317.06 39.5432 317.171 56.9667 316.882C58.6611 316.854 61.0618 314.618 61.8621 312.826C67.6681 299.843 73.1099 286.681 78.7448 273.625C81.416 267.422 84.7163 265.503 90.732 265.915C95.8206 266.254 98.271 269.508 100.065 273.73C105.495 286.525 111.103 299.197 116.296 312.081C117.875 316.014 120.088 317.204 124.05 317.165C140.094 317.004 156.143 317.099 172.193 317.06C173.81 317.06 175.427 316.793 178.12 316.553L165.217 286.38C158.39 270.421 152.291 253.782 142.009 239.652C131.523 225.189 115.33 214.953 97.5425 212.95C71.9509 210.063 51.238 224.482 36.3698 244.014Z" fill="#F65312"/>
<path d="M199.06 219.965C209.927 228.371 222.389 234.924 234.31 239.435C237.389 240.603 240.287 241.955 243.284 243.329C251.01 246.834 258.737 250.316 266.464 253.838L270.614 255.729C271.061 253.826 271.48 252.864 271.48 251.902C271.53 234.334 271.646 216.767 271.359 199.205C271.331 197.497 269.113 195.077 267.336 194.27C254.454 188.418 241.396 182.933 228.443 177.253C222.289 174.561 220.385 171.234 220.788 165.176C221.13 160.047 224.354 157.572 228.542 155.764C241.236 150.29 253.814 144.638 266.596 139.409C270.498 137.818 271.679 135.587 271.64 131.588C271.475 115.416 271.569 99.2396 271.536 83.0684C271.536 81.4329 271.265 79.8029 271.028 77.0883L241.093 90.0998C225.259 96.981 208.757 103.122 194.733 113.464C180.384 124.067 170.229 140.355 168.242 158.29C165.377 184.101 179.683 204.979 199.06 219.965Z" fill="#F65312"/>
<path d="M156.441 73.7838C164.78 62.8305 171.276 50.2695 175.757 38.2537C176.916 35.1552 178.257 32.2347 179.621 29.2085C183.094 21.4204 186.567 13.6324 190.041 5.84438L191.917 1.66109C190.035 1.21605 189.08 0.787743 188.12 0.787743C170.696 0.737677 153.267 0.62084 135.844 0.91011C134.149 0.91011 131.749 3.17979 130.948 4.96547C125.142 17.9548 119.701 31.111 114.066 44.1726C111.395 50.3697 108.094 52.2889 102.079 51.8828C96.99 51.5379 94.5395 48.2891 92.7458 44.0947C87.3151 31.3001 81.7078 18.6223 76.5144 5.74429C74.936 1.80577 72.7228 0.615299 68.7602 0.654239C52.7164 0.821126 36.6671 0.72653 20.6178 0.76547C19.0008 0.76547 17.3837 1.03251 14.6904 1.27171L27.5939 31.4448C34.4209 47.4047 40.5194 64.0432 50.7737 78.1729C61.2599 92.6364 77.4527 102.867 95.2404 104.875C120.86 107.734 141.573 93.3151 156.441 73.7838Z" fill="#F65312"/>
</g>
<defs>
<clipPath id="clip0_790_304">
<rect width="270.741" height="316.528" fill="white" transform="translate(0.893555 0.631958)"/>
</clipPath>
</defs>
</svg>
