<svg width="202" height="119" viewBox="0 0 202 119" fill="none" xmlns="http://www.w3.org/2000/svg">
<path d="M40.3952 36.1065C30.9346 48.4079 23.5652 62.5087 18.4811 76.0096C17.1663 79.4895 15.6448 82.7694 14.0983 86.1619C10.158 94.9084 6.21759 103.655 2.27723 112.402L0.148438 117.1C2.2835 117.606 3.36668 118.081 4.45612 118.087C24.2226 118.143 43.9954 118.268 63.7619 117.943C65.6841 117.912 68.4077 115.4 69.3155 113.389C75.9023 98.8069 82.0758 84.0253 88.4684 69.3623C91.4988 62.3963 95.243 60.2408 102.068 60.7031C107.84 61.0842 110.62 64.7391 112.655 69.481C118.816 83.8503 125.178 98.0822 131.069 112.551C132.86 116.968 135.371 118.305 139.835 118.262C158.036 118.08 176.244 118.187 194.451 118.143C196.286 118.143 198.12 117.843 201.176 117.574L186.537 83.6879C178.792 65.7637 171.873 47.0773 160.24 31.2085C148.313 14.9649 129.974 3.46947 109.794 1.22036C80.7609 -2.02211 57.2628 14.1714 40.3952 36.1065Z" fill="#A777FF"/>
</svg>
