<svg width="24" height="25" viewBox="0 0 24 25" fill="none" xmlns="http://www.w3.org/2000/svg">
<path d="M22.5396 6.92C22.4208 6.44541 22.1789 6.01057 21.8382 5.65941C21.4976 5.30824 21.0703 5.05318 20.5996 4.92C18.8796 4.5 11.9996 4.5 11.9996 4.5C11.9996 4.5 5.1196 4.5 3.3996 4.96C2.92884 5.09318 2.50157 5.34824 2.16094 5.69941C1.82031 6.05057 1.57838 6.48541 1.4596 6.96C1.14481 8.70556 0.990831 10.4763 0.999595 12.25C0.988374 14.037 1.14236 15.8213 1.4596 17.58C1.59055 18.0398 1.8379 18.4581 2.17774 18.7945C2.51758 19.1308 2.93842 19.3738 3.3996 19.5C5.1196 19.96 11.9996 19.96 11.9996 19.96C11.9996 19.96 18.8796 19.96 20.5996 19.5C21.0703 19.3668 21.4976 19.1118 21.8382 18.7606C22.1789 18.4094 22.4208 17.9746 22.5396 17.5C22.852 15.7676 23.0059 14.0103 22.9996 12.25C23.0108 10.463 22.8568 8.6787 22.5396 6.92Z" stroke="#A7B0B9" stroke-width="1.5" stroke-linecap="round" stroke-linejoin="round"/>
<path d="M9.74959 15.52L15.4996 12.25L9.74959 8.98V15.52Z" stroke="#A7B0B9" stroke-width="1.5" stroke-linecap="round" stroke-linejoin="round"/>
</svg>
